<svg viewBox="0 0 165 45" fill="none" xmlns="http://www.w3.org/2000/svg">
<path d="M31.59 30V17.685H35.385V30H31.59ZM33.54 14.505C32.91 14.505 32.375 14.285 31.935 13.845C31.505 13.405 31.29 12.88 31.29 12.27C31.29 11.66 31.51 11.13 31.95 10.68C32.39 10.23 32.92 10.005 33.54 10.005C33.95 10.005 34.325 10.11 34.665 10.32C35.005 10.52 35.28 10.79 35.49 11.13C35.7 11.47 35.805 11.85 35.805 12.27C35.805 12.88 35.58 13.405 35.13 13.845C34.69 14.285 34.16 14.505 33.54 14.505ZM46.7107 17.325C47.5507 17.325 48.3707 17.5 49.1707 17.85C49.9707 18.19 50.6257 18.735 51.1357 19.485C51.6557 20.235 51.9157 21.215 51.9157 22.425V30H48.0907V23.085C48.0907 22.075 47.8507 21.325 47.3707 20.835C46.9007 20.345 46.2807 20.1 45.5107 20.1C45.0107 20.1 44.5307 20.24 44.0707 20.52C43.6207 20.79 43.2507 21.17 42.9607 21.66C42.6807 22.14 42.5407 22.69 42.5407 23.31V30H38.7307V17.685H42.5407V19.65C42.6507 19.31 42.9007 18.96 43.2907 18.6C43.6807 18.24 44.1757 17.94 44.7757 17.7C45.3757 17.45 46.0207 17.325 46.7107 17.325ZM53.8261 17.685H56.0461V12.63H59.8261V17.685H62.7361V20.85H59.8261V25.305C59.8261 25.895 59.9211 26.355 60.1111 26.685C60.3011 27.005 60.6011 27.165 61.0111 27.165C61.3211 27.165 61.5761 27.105 61.7761 26.985C61.9761 26.855 62.0961 26.765 62.1361 26.715L63.4861 29.445C63.4261 29.505 63.2311 29.61 62.9011 29.76C62.5811 29.91 62.1661 30.045 61.6561 30.165C61.1561 30.295 60.5911 30.36 59.9611 30.36C58.8311 30.36 57.8961 30.035 57.1561 29.385C56.4161 28.725 56.0461 27.705 56.0461 26.325V20.85H53.8261V17.685ZM68.2287 24.69C68.2587 25.25 68.4087 25.75 68.6787 26.19C68.9487 26.63 69.3387 26.975 69.8487 27.225C70.3687 27.475 70.9887 27.6 71.7087 27.6C72.3587 27.6 72.9287 27.52 73.4187 27.36C73.9187 27.2 74.3387 27.005 74.6787 26.775C75.0287 26.535 75.2887 26.305 75.4587 26.085L77.0337 28.425C76.7537 28.775 76.3787 29.1 75.9087 29.4C75.4487 29.69 74.8587 29.92 74.1387 30.09C73.4287 30.27 72.5387 30.36 71.4687 30.36C70.1187 30.36 68.9337 30.095 67.9137 29.565C66.8937 29.035 66.0987 28.27 65.5287 27.27C64.9587 26.27 64.6737 25.08 64.6737 23.7C64.6737 22.5 64.9287 21.42 65.4387 20.46C65.9487 19.49 66.6887 18.725 67.6587 18.165C68.6387 17.605 69.8137 17.325 71.1837 17.325C72.4737 17.325 73.5887 17.575 74.5287 18.075C75.4787 18.565 76.2137 19.285 76.7337 20.235C77.2537 21.185 77.5137 22.345 77.5137 23.715C77.5137 23.795 77.5087 23.96 77.4987 24.21C77.4987 24.45 77.4887 24.61 77.4687 24.69H68.2287ZM73.9437 22.335C73.9337 22.015 73.8337 21.67 73.6437 21.3C73.4637 20.93 73.1787 20.615 72.7887 20.355C72.3987 20.095 71.8787 19.965 71.2287 19.965C70.5787 19.965 70.0437 20.09 69.6237 20.34C69.2137 20.59 68.9037 20.9 68.6937 21.27C68.4837 21.63 68.3637 21.985 68.3337 22.335H73.9437ZM83.9264 30H80.1014V9.36H83.9264V30ZM91.0163 30H87.1913V9.36H91.0163V30ZM94.4611 30V17.685H98.2561V30H94.4611ZM96.4111 14.505C95.7811 14.505 95.2461 14.285 94.8061 13.845C94.3761 13.405 94.1611 12.88 94.1611 12.27C94.1611 11.66 94.3811 11.13 94.8211 10.68C95.2611 10.23 95.7911 10.005 96.4111 10.005C96.8211 10.005 97.1961 10.11 97.5361 10.32C97.8761 10.52 98.1511 10.79 98.3611 11.13C98.5711 11.47 98.6761 11.85 98.6761 12.27C98.6761 12.88 98.4511 13.405 98.0011 13.845C97.5611 14.285 97.0311 14.505 96.4111 14.505ZM107.962 36.585C107.062 36.585 106.197 36.5 105.367 36.33C104.547 36.16 103.802 35.895 103.132 35.535C102.462 35.175 101.902 34.705 101.452 34.125L103.762 31.785C103.972 32.055 104.242 32.325 104.572 32.595C104.912 32.875 105.342 33.105 105.862 33.285C106.382 33.475 107.032 33.57 107.812 33.57C108.552 33.57 109.187 33.425 109.717 33.135C110.257 32.855 110.672 32.455 110.962 31.935C111.262 31.415 111.412 30.81 111.412 30.12V29.775H115.147V30.345C115.147 31.705 114.827 32.85 114.187 33.78C113.547 34.71 112.687 35.41 111.607 35.88C110.527 36.35 109.312 36.585 107.962 36.585ZM111.412 30V27.855C111.322 28.075 111.092 28.385 110.722 28.785C110.352 29.185 109.852 29.55 109.222 29.88C108.602 30.2 107.872 30.36 107.032 30.36C105.852 30.36 104.807 30.08 103.897 29.52C102.987 28.95 102.272 28.175 101.752 27.195C101.242 26.205 100.987 25.09 100.987 23.85C100.987 22.61 101.242 21.5 101.752 20.52C102.272 19.53 102.987 18.75 103.897 18.18C104.807 17.61 105.852 17.325 107.032 17.325C107.852 17.325 108.562 17.465 109.162 17.745C109.772 18.015 110.262 18.335 110.632 18.705C111.012 19.065 111.257 19.39 111.367 19.68V17.685H115.147V30H111.412ZM104.722 23.85C104.722 24.54 104.877 25.15 105.187 25.68C105.497 26.2 105.907 26.605 106.417 26.895C106.927 27.185 107.482 27.33 108.082 27.33C108.712 27.33 109.272 27.185 109.762 26.895C110.252 26.595 110.637 26.185 110.917 25.665C111.207 25.135 111.352 24.53 111.352 23.85C111.352 23.17 111.207 22.57 110.917 22.05C110.637 21.52 110.252 21.105 109.762 20.805C109.272 20.505 108.712 20.355 108.082 20.355C107.482 20.355 106.927 20.505 106.417 20.805C105.907 21.095 105.497 21.505 105.187 22.035C104.877 22.555 104.722 23.16 104.722 23.85ZM121.888 30H118.078V17.685H121.888V19.68H121.813C121.883 19.44 122.073 19.135 122.383 18.765C122.703 18.395 123.143 18.065 123.703 17.775C124.263 17.475 124.938 17.325 125.728 17.325C126.298 17.325 126.813 17.41 127.273 17.58C127.743 17.74 128.078 17.9 128.278 18.06L126.778 21.18C126.648 21.02 126.403 20.855 126.043 20.685C125.693 20.515 125.253 20.43 124.723 20.43C124.093 20.43 123.568 20.605 123.148 20.955C122.728 21.295 122.413 21.715 122.203 22.215C121.993 22.705 121.888 23.165 121.888 23.595V30ZM135.452 30.36C134.142 30.36 132.972 30.08 131.942 29.52C130.922 28.96 130.122 28.195 129.542 27.225C128.962 26.245 128.672 25.13 128.672 23.88C128.672 22.63 128.962 21.515 129.542 20.535C130.122 19.545 130.922 18.765 131.942 18.195C132.972 17.615 134.142 17.325 135.452 17.325C136.772 17.325 137.937 17.615 138.947 18.195C139.957 18.765 140.747 19.545 141.317 20.535C141.887 21.515 142.172 22.63 142.172 23.88C142.172 25.13 141.887 26.245 141.317 27.225C140.747 28.195 139.957 28.96 138.947 29.52C137.937 30.08 136.772 30.36 135.452 30.36ZM135.452 27.195C136.082 27.195 136.627 27.055 137.087 26.775C137.557 26.485 137.917 26.09 138.167 25.59C138.427 25.08 138.557 24.505 138.557 23.865C138.557 23.225 138.427 22.65 138.167 22.14C137.917 21.63 137.557 21.23 137.087 20.94C136.627 20.64 136.082 20.49 135.452 20.49C134.822 20.49 134.272 20.64 133.802 20.94C133.342 21.23 132.982 21.63 132.722 22.14C132.462 22.65 132.332 23.225 132.332 23.865C132.332 24.505 132.462 25.08 132.722 25.59C132.982 26.09 133.342 26.485 133.802 26.775C134.272 27.055 134.822 27.195 135.452 27.195ZM153.685 22.065L150.715 30H147.1L143.305 17.685H147.355L149.425 25.905L152.35 17.925H155.035L157.93 25.905L160.015 17.685H164.065L160.285 30H156.67L153.685 22.065Z" fill="#20DB81"/>
<path d="M23.7042 8.42203C23.4612 7.8795 22.7667 7.8578 22.4759 8.36995C21.1304 10.7094 18.7216 12.1677 15.9698 12.1677H12.4976C7.89693 12.1677 4.16429 15.9003 4.16429 20.501C4.16429 20.8048 4.19901 21.0956 4.2294 21.3908C6.99849 19.4073 10.9959 17.7232 16.6643 17.7232C17.0462 17.7232 17.3587 18.0357 17.3587 18.4177C17.3587 18.7996 17.0462 19.1121 16.6643 19.1121C5.75283 19.1121 1.1261 25.8005 0.101792 28.3135C-0.184666 29.021 0.153875 29.8283 0.86134 30.1191C1.57315 30.4142 2.38044 30.0713 2.67558 29.3682C2.74068 29.212 3.58269 27.2892 5.79624 25.4359C7.20249 27.3413 9.8761 29.1599 13.3874 28.7866C20.2016 28.2918 24.9976 22.1807 24.9976 14.6981C24.9976 12.5193 24.5289 10.2623 23.7042 8.42203Z" fill="#20DB81"/>
</svg>
